<svg xmlns="http://www.w3.org/2000/svg"><symbol id="fa-bell-o" viewBox="0 0 1792 1792"><path d="M912 1696q0-16-16-16-59 0-101.5-42.5T752 1536q0-16-16-16t-16 16q0 73 51.5 124.5T896 1712q16 0 16-16zm-666-288h1300q-266-300-266-832 0-51-24-105t-69-103-121.5-80.5T896 256t-169.5 31.5T605 368t-69 103-24 105q0 532-266 832zm1482 0q0 52-38 90t-90 38h-448q0 106-75 181t-181 75-181-75-75-181H192q-52 0-90-38t-38-90q50-42 91-88t85-119.5 74.5-158.5 50-206T384 576q0-152 117-282.5T808 135q-8-19-8-39 0-40 28-68t68-28 68 28 28 68q0 20-8 39 190 28 307 158.5T1408 576q0 139 19.5 260t50 206 74.5 158.5 85 119.5 91 88z"/></symbol><symbol id="fa-globe" viewBox="0 0 1792 1792"><path d="M896 128q209 0 386 103t279 280 103 385-103 386-279 279-386 103-385-103-280-279-103-386 103-385 280-280 385-103zm274 521-9 10q-7 9-14 9 2 0 5-5t5-11 3-7q6-7 22-15 14-6 52-12 34-8 51 11-2-2 10-13t14-12q3-2 15-4t15-8l2-22q-12 1-17-7t-7-21q0 2-6 8 0-7-4-8t-12 1-9 1q-10-3-15-7t-8-17-4-15q-2-5-9-11t-10-10l-2-5-3-7-4-5-6-3q-4-2-7 5t-7 10-5 5q-3-2-6-1t-4 1-5 3-5 3l-8 3-9 2q15-5-1-11-10-4-16-3 9-4 8-12t-9-14h5q-1-4-8-8t-18-9-13-6q-8-5-34-9t-33-1q-5 6-4 11t4 14 3 12q1 6-5 13t-7 12q0 7 14 16t10 21q-3 8-16 16t-16 12q-5 8-1 19t10 16l2 4q0 2-4 5t-5 4-7 3l-3 2q-11 5-20-6t-14-26q-7-25-16-30-23-8-29 1-5-13-41-26-25-9-58-4 6-1 0-15-7-15-19-12 3-6 4-17t1-14q3-13 12-23l7-8 10-14q4-7 0-6 35 4 50-11 5-5 12-17t10-17q9-6 14-5t15 5 14 5q14 1 16-11t-8-20q12 1 3-17-4-7-8-9-12-4-27 5-8 4 2 8-1-1-9 11t-17 17-16-5l-5-13q-4-12-10-14-8 0-16 15 3-8-11-15t-24-8q19-12-8-27-7-4-20-5t-20 4q-5 7-5 12t5 8 10 5 12 4 8 3q14 10 8 14l-8 4-12 4q-6 1-6 4-3 4 0 14t-2 14q-5-5-9-17t-7-17q7 9-25 6l-10-1-16 2q-12 2-20 1t-14-8q-4-8 0-20 1-4 4-2l-11-9-10-9q-46 15-94 41 6 1 12-1l13-6 10-6q34-14 42-7l5-5 20 25q-7-4-30-1-20 6-22 12 7 12 5 18l-11-10q-7-7-15-11t-15-5l-22 1q-146 80-235 222 7 7 12 8 4 1 5 9t3 11 11-3q9 8 3 19 1-1 44 27 19 17 21 21 3 11-10 18l-9-9q-8-7-9-4-3 5 1 19t10 12q-7 0-9 16t-3 36-1 23l2 1q-3 12 6 35t21 19q-13 3 20 43l8 9 12 8 15 10q6 4 10 10 4 5 10 23t14 23q-2 6 10 20t10 23l-2 1-3 1q3 7 16 14t15 13l2 10 3 11q2 4 8 2 2-20-24-62l-17-29q-3-5-5-15t-5-15l6 2 9 3q5 1 7 4t2 3q-3 7 2 18t12 18 17 19 12 13q6 6 14 20t0 13q9 0 20 11t17 19q5 8 8 26t5 24q2 7 9 14t12 9l16 8 13 7 19 11q14 9 21 11 10 4 16 4t15-2 13-4q15-2 29 15t21 21q36 19 55 11-2 1 1 8t8 15 9 15 5 8q5 6 18 15t18 15q6-4 7-9-3 8 7 20t18 10q14-3 14-32-31 15-49-18l-2-5-4-9-3-8v-8q1-5 5-3 9 0 10-3t-2-13-4-13q-1-8-11-20t-12-15q-5 9-16 8t-16-9l-1 6-2 6-15-1 3-17 3-23 6-12 7-14 4-13q2-7-4-9t-18-3q-19 1-26 20l-3 11q-2 8-5 11t-9 7q-7 3-24 2t-24-5q-13-8-22-29t-10-37q0-10 3-26t3-25-6-25l9-9 10-11 5-1h4l4-2q3-2 3-6l-4-3-4-3q7 3 29-1t27 1q15 11 22-2l-2-9q-2-8-1-14 5 27 29 9 3 3 16 5t17 5l7 6q4 4 6 4t5 0 8-7q10 14 12 24 11 40 19 44 7 3 11 2t5-9 0-14-2-13l-1-8v-18l-1-8q-15-3-18-12t1-18 15-19l8-3 16-7 12-8q21-19 15-35 7 0 11-9l-5-3-7-5-5-2q9-5 2-16 5-3 8-11t7-10q9 12 21 2 8-8 1-16 5-7 21-10t18-10q7 2 8-2t1-12 3-12q4-5 15-9t13-5l17-11q3-4 0-4 18 2 31-11 10-11-6-20 3-6-3-9t-15-6h12q9 1 10-2 15-10-7-16-17-5-43 12zm-163 877q206-36 351-189-3-3-12-4t-13-4l-24-8q1-7-2-13t-8-9-13-8-11-7l-7-6-7-5-7-5q-5-4-9-2t-10 1l-3 1-5 3-6 3q-4 1-4 3t0 2q-21-17-36-22-5-1-11-5t-10-7-10-2-12 7q-5 5-6 15t-2 13q-7-5 0-17t2-19q-3-6-10-4t-12 4-12 9-9 6-8 6-9 7l-6 12-5 11q-2-4-11-6t-10-6l4 35q2 25 5 38 7 31-12 48-27 25-29 40-4 22 12 26 0 7-8 21t-7 21z"/></symbol><symbol id="fa-reply" viewBox="0 0 1792 1792"><path d="M1792 1120q0 166-127 451l-10 24-14 30-13 22q-12 17-28 17-15 0-23-10t-9-25q0-9 3-26t2-24q5-68 5-123 0-101-17-181t-49-138-80-101-105-70-133-42-154-22-176-6H640v256q0 26-19 45t-45 19-45-19L19 685Q0 666 0 640t19-45L531 83q19-19 45-19t45 19 19 45v256h224q713 0 875 403 53 134 53 333z"/></symbol><symbol id="fa-reply-all" viewBox="0 0 1792 1792"><path d="M640 1082v70q0 42-39 59-13 5-25 5-27 0-45-19L19 685Q0 666 0 640t19-45L531 83q29-31 70-14 39 17 39 59v69L243 595q-19 19-19 45t19 45zm1152 38q0 58-17 134t-38 138-48 125-41 90l-20 40q-8 17-28 17l-9-1q-25-8-23-34 43-400-106-565-64-71-170-110t-268-53v251q0 42-39 59-13 5-25 5-27 0-45-19L403 685q-19-19-19-45t19-45L915 83q29-31 70-14 39 17 39 59v262q411 28 599 221 169 173 169 509z"/></symbol><symbol id="fa-retweet" viewBox="0 0 2048 1792"><path d="M1344 1504q0 13-9 23t-23 9H352q-8 0-13-2t-9-7-6-8-3-11-1-12V896H128q-26 0-45-19t-19-45q0-24 15-41l320-384q19-22 49-22t49 22l320 384q15 17 15 41 0 26-19 45t-45 19H576v384h576q16 0 25 11l160 192q7 10 7 21zm640-416q0 24-15 41l-320 384q-20 23-49 23t-49-23l-320-384q-15-17-15-41 0-26 19-45t45-19h192V640H896q-16 0-25-12L711 436q-7-9-7-20 0-13 10-22t22-10h960q8 0 14 2t9 7 5 8 3 12 1 11v600h192q26 0 45 19t19 45z"/></symbol><symbol id="fa-star" viewBox="0 0 1792 1792"><path d="M1728 647q0 22-26 48l-363 354 86 500 1 20q0 21-10 36t-31 14q-19 0-40-12l-449-236-449 236q-22 12-40 12-21 0-31-14t-11-36l2-20 86-500L89 695q-25-27-25-48 0-37 56-46l502-73L847 73q19-41 49-41t49 41l225 455 502 73q56 9 56 46z"/></symbol><symbol id="fa-star-o" viewBox="0 0 1792 1792"><path d="m1201 1004 306-297-422-62-189-382-189 382-422 62 306 297-73 421 378-199 377 199zm527-357q0 22-26 48l-363 354 86 500 1 20q0 50-41 50-19 0-40-12l-449-236-449 236q-22 12-40 12-21 0-31-14t-11-36l2-20 86-500L89 695q-25-27-25-48 0-37 56-46l502-73L847 73q19-41 49-41t49 41l225 455 502 73q56 9 56 46z"/></symbol><symbol id="fa-ellipsis-h" viewBox="0 0 1792 1792"><path d="M576 736v192q0 40-28 68t-68 28H288q-40 0-68-28t-28-68V736q0-40 28-68t68-28h192q40 0 68 28t28 68zm512 0v192q0 40-28 68t-68 28H800q-40 0-68-28t-28-68V736q0-40 28-68t68-28h192q40 0 68 28t28 68zm512 0v192q0 40-28 68t-68 28h-192q-40 0-68-28t-28-68V736q0-40 28-68t68-28h192q40 0 68 28t28 68z"/></symbol><symbol id="fa-spinner" viewBox="0 0 1792 1792"><path d="M526 1394q0 53-37 91t-91 37q-52 0-90-38t-38-90q0-53 38-90t90-38 91 38 37 90zm498 206q0 53-37 91t-91 37-90-37-38-91 38-90 90-38 91 38 37 90zM320 896q0 53-37 91t-91 37-90-37-38-91 38-90 90-38 91 38 37 90zm1202 498q0 52-38 90t-90 38q-53 0-90-37t-38-91 38-90 90-38 91 38 37 90zM558 398q0 66-47 113t-113 47-113-47-47-113 47-113 113-47 113 47 47 113zm1170 498q0 53-37 91t-91 37-90-37-38-91 38-90 90-38 91 38 37 90zm-640-704q0 80-56 136t-136 56-136-56-56-136 56-136T896 0t136 56 56 136zm530 206q0 93-66 159t-158 65q-93 0-158-65t-66-159q0-92 66-158t158-66q92 0 158 66t66 158z"/></symbol><symbol id="fa-user" viewBox="0 0 1792 1792"><path d="M1536 1399q0 109-62 187t-151 78H469q-88 0-150-78t-63-187q0-85 9-160t31-152 59-131 94-89 134-35q131 128 313 128t313-128q76 0 135 35t94 89 58 131 32 152 8 160zm-256-887q0 159-112 272T896 896 625 784 512 512t113-271 271-113 272 113 112 271z"/></symbol><symbol id="fa-play-circle" viewBox="0 0 1792 1792"><path d="M896 128q209 0 386 103t279 280 103 385-103 386-279 279-386 103-385-103-280-279-103-386 103-385 280-280 385-103zm384 823q32-18 32-55t-32-55L736 521q-31-19-64-1-32 19-32 56v640q0 37 32 56 16 8 32 8 17 0 32-9z"/></symbol><symbol id="fa-eye" viewBox="0 0 1792 1792"><path d="M1664 960q-152-236-381-353 61 104 61 225 0 185-131 317t-317 131-316-131-132-317q0-121 61-225-229 117-381 353 133 205 334 327t434 121 435-121 333-327zM944 576q0-20-14-34t-34-14q-125 0-214 90t-90 214q0 20 14 34t34 14 34-14 14-34q0-86 61-147t147-61q20 0 34-14t14-34zm848 384q0 34-20 69-140 230-376 369t-500 138-499-139-377-368Q0 994 0 960t20-69q140-229 377-368t499-139 500 139 376 368q20 35 20 69z"/></symbol><symbol id="fa-eye-slash" viewBox="0 0 1792 1792"><path d="m555 1335 78-141q-87-63-136-159t-49-203q0-121 61-225-229 117-381 353 167 258 427 375zm389-759q0-20-14-34t-34-14q-125 0-214 90t-90 214q0 20 14 34t34 14 34-14 14-34q0-86 61-147t147-61q20 0 34-14t14-34zm363-191-1 9-316 567-315 566-49 89q-10 16-28 16-12 0-134-70-16-10-16-28 0-12 44-87-143-65-263-173T20 1029Q0 998 0 960t20-69q153-235 380-371t496-136q89 0 180 17l54-97q10-16 28-16 5 0 18 6t31 16 33 18 32 19 19 11q16 10 16 27zm37 447q0 139-79 254t-209 164l280-502q8 45 8 84zm448 128q0 35-20 69-39 64-109 145-150 172-347 267t-420 95l74-132q212-18 393-137t301-307q-115-179-282-294l63-112q95 64 183 153t144 184q20 34 20 69z"/></symbol><symbol id="fa-lock" viewBox="0 0 1792 1792"><path d="M640 768h512V576q0-106-75-181t-181-75-181 75-75 181v192zm832 96v576q0 40-28 68t-68 28H416q-40 0-68-28t-28-68V864q0-40 28-68t68-28h32V576q0-184 132-316t316-132 316 132 132 316v192h32q40 0 68 28t28 68z"/></symbol><symbol id="fa-unlock" viewBox="0 0 1792 1792"><path d="M1728 576v256q0 26-19 45t-45 19h-64q-26 0-45-19t-19-45V576q0-106-75-181t-181-75-181 75-75 181v192h96q40 0 68 28t28 68v576q0 40-28 68t-68 28H160q-40 0-68-28t-28-68V864q0-40 28-68t68-28h672V576q0-185 132-316t316-132 317 132 131 316z"/></symbol><symbol id="fa-envelope" viewBox="0 0 1792 1792"><path d="M1792 710v794q0 66-47 113t-113 47H160q-66 0-113-47T0 1504V710q44 49 101 87 362 246 497 345 57 42 93 66t94 48 110 24h2q51 0 110-24t95-48 92-66q170-123 498-345 57-39 100-87zm0-294q0 79-49 151t-122 123l-468 325-42 31q-32 24-54 38t-52 32-58 27-50 9h-2q-23 0-50-9t-57-27-52-32-54-38-43-31L377 833Q206 715 172 690q-62-42-117-115T0 438q0-78 42-130t118-52h1472q65 0 113 47t47 113z"/></symbol><symbol id="fa-user-times" viewBox="0 0 2048 1792"><path d="M704 896q-159 0-271-112T320 512t113-271 271-113 272 113 112 271-112 272-272 112zm1077 320 249 249q9 9 9 23 0 13-9 22l-136 136q-9 9-22 9-14 0-23-9l-249-249-249 249q-9 9-23 9-13 0-22-9l-136-136q-9-9-9-22 0-14 9-23l249-249-249-249q-9-9-9-23 0-13 9-22l136-136q9-9 22-9 14 0 23 9l249 249 249-249q9-9 23-9 13 0 22 9l136 136q9 9 9 22 0 14-9 23zm-498 0-181 181q-37 37-37 91 0 53 37 90l83 83q-21 3-44 3H267q-121 0-194-69T0 1405q0-53 4-103t14-109 26-109 43-97 62-81 86-54 111-20q19 0 39 17 154 122 319 122t319-122q20-17 39-17 28 0 57 6-28 27-41 50t-13 56q0 54 37 91z"/></symbol><symbol id="fa-user-plus" viewBox="0 0 2048 1792"><path d="M704 896q-159 0-271-112T320 512t113-271 271-113 272 113 112 271-112 272-272 112zm960 128h352q13 0 23 10t9 22v192q0 13-9 23t-23 9h-352v352q0 13-9 23t-23 9h-192q-13 0-22-9t-10-23v-352h-352q-13 0-22-9t-10-23v-192q0-13 10-22t22-10h352V672q0-13 10-22t22-10h192q13 0 23 10t9 22zm-736 224q0 52 38 90t90 38h256v238q-68 50-171 50H267q-121 0-194-69T0 1405q0-53 4-103t14-109 26-109 43-97 62-81 86-54 111-20q19 0 39 17 79 61 155 92t164 30 165-30 154-92q20-17 39-17 132 0 217 96h-223q-52 0-90 38t-38 90z"/></symbol><symbol id="fa-external-link" viewBox="0 0 1792 1792"><path d="M1408 928v320q0 119-84 204t-204 84H288q-119 0-203-84T0 1248V416q0-119 85-203t203-85h704q14 0 23 9t9 23v64q0 14-9 23t-23 9H288q-66 0-113 47t-47 113v832q0 66 47 113t113 47h832q66 0 113-47t47-113V928q0-14 9-23t23-9h64q14 0 23 9t9 23zm384-864v512q0 26-19 45t-45 19-45-19l-176-176-652 652q-10 10-23 10t-23-10L695 983q-10-10-10-23t10-23l652-652-176-176q-19-19-19-45t19-45 45-19h512q26 0 45 19t19 45z"/></symbol><symbol id="fa-comment" viewBox="0 0 1792 1792"><path d="M1792 896q0 174-120 321.5t-326 233-450 85.5q-70 0-145-8-198 175-460 242-49 14-114 22-17 2-30.5-9t-17.5-29v-1q-3-4-.5-12t2-10 4.5-9.5l6-9 7-8.5 8-9q7-8 31-34.5t34.5-38 31-39.5 32.5-51 27-59 26-76q-157-89-247.5-220T0 896q0-130 71-248.5T262 443t286-136.5T896 256q244 0 450 85.5t326 233T1792 896z"/></symbol><symbol id="fa-paperclip" viewBox="0 0 1792 1792"><path d="M1596 1385q0 117-79 196t-196 79q-135 0-235-100L309 784Q196 669 196 513q0-159 110-270t269-111q158 0 273 113l605 606q10 10 10 22 0 16-30 47t-47 30q-13 0-23-10L757 333q-79-77-181-77-106 0-179 75t-73 181q0 105 76 181l776 777q63 63 145 63 64 0 106-42t42-106q0-82-63-145L825 659q-26-24-60-24-29 0-48 19t-19 48q0 32 25 59l410 410q10 10 10 22 0 16-31 47t-47 31q-12 0-22-10L633 851q-63-61-63-149 0-82 57-139t139-57q88 0 149 63l581 581q100 98 100 235z"/></symbol><symbol id="fa-thumb-tack" viewBox="0 0 1792 1792"><path d="M800 864V416q0-14-9-23t-23-9-23 9-9 23v448q0 14 9 23t23 9 23-9 9-23zm672 352q0 26-19 45t-45 19H979l-51 483q-2 12-10 21t-21 8h-1q-27 0-32-27l-76-485H384q-26 0-45-19t-19-45q0-123 79-221t177-99V384q-52 0-90-38t-38-90 38-90 90-38h640q52 0 90 38t38 90-38 90-90 38v512q99 0 178 99t78 221z"/></symbol><symbol id="fa-bars" viewBox="0 0 1792 1792"><path d="M1664 1344v128q0 26-19 45t-45 19H192q-26 0-45-19t-19-45v-128q0-26 19-45t45-19h1408q26 0 45 19t19 45zm0-512v128q0 26-19 45t-45 19H192q-26 0-45-19t-19-45V832q0-26 19-45t45-19h1408q26 0 45 19t19 45zm0-512v128q0 26-19 45t-45 19H192q-26 0-45-19t-19-45V320q0-26 19-45t45-19h1408q26 0 45 19t19 45z"/></symbol><symbol id="fa-ban" viewBox="0 0 1792 1792"><path d="M1440 893q0-161-87-295l-754 753q137 89 297 89 111 0 212-43t173-117 116-174 43-213zm-999 299 755-754q-135-91-300-91-148 0-273 73T425 619t-73 274q0 162 89 299zm1223-299q0 157-61 300t-163 246-245 164-299 61-298-61-245-164-164-246-61-300 61-299 164-246 245-164 298-61 299 61 245 164 163 246 61 299z"/></symbol><symbol id="fa-camera" viewBox="0 0 2048 1792"><path d="M1024 672q119 0 204 85t84 203-84 204-204 84-203-84-85-204 85-203 203-85zm704-416q106 0 181 75t75 181v896q0 106-75 181t-181 75H320q-106 0-181-75t-75-181V512q0-106 75-181t181-75h224l51-136q19-49 70-84T768 0h512q53 0 104 36t69 84l51 136h224zm-704 1152q185 0 317-131t131-317-131-316-317-132-316 132-132 316 132 317 316 131z"/></symbol><symbol id="fa-smile" viewBox="0 0 1792 1792"><path d="M1262 1075q-37 121-138 195t-228 74-228-74-138-195q-8-25 4-48t38-32q25-8 49 4t31 38q25 80 93 130t151 49 152-49 92-130q8-26 32-38t49-4 37 32 4 48zM768 640q0 53-37 91t-91 37-90-37-38-91 38-90 90-38 91 38 37 90zm512 0q0 53-37 91t-91 37-90-37-38-91 38-90 90-38 91 38 37 90zm256 256q0-130-51-248t-136-204-204-137-249-51-248 51-204 137-137 204-51 248 51 249 137 204 204 136 248 51 249-51 204-136 136-204 51-249zm128 0q0 209-103 386t-279 279-386 103-385-103-280-279-103-386 103-385 280-280 385-103 386 103 279 280 103 385z"/></symbol><symbol id="fa-exclamation-triangle" viewBox="0 0 1792 1792"><path d="M1024 1375v-190q0-14-9-23t-23-10H800q-13 0-22 10t-10 23v190q0 14 10 24t22 9h192q13 0 23-9t9-24zm-2-374 18-459q0-12-10-19-13-11-24-11H786q-11 0-24 11-10 7-10 21l17 457q0 10 10 17t24 6h185q14 0 24-6t10-17zm-14-934 768 1408q35 63-2 126-17 29-46 46t-64 17H128q-34 0-63-17t-47-46q-37-63-2-126L784 67q17-31 47-49t65-18 65 18 47 49z"/></symbol><symbol id="fa-check" viewBox="0 0 1792 1792"><path d="M1671 566q0 40-28 68l-724 724-136 136q-28 28-68 28t-68-28l-136-136-362-362q-28-28-28-68t28-68l136-136q28-28 68-28t68 28l294 295 656-657q28-28 68-28t68 28l136 136q28 28 28 68z"/></symbol><symbol id="fa-trash" viewBox="0 0 1792 1792"><path d="M704 736v576q0 14-9 23t-23 9h-64q-14 0-23-9t-9-23V736q0-14 9-23t23-9h64q14 0 23 9t9 23zm256 0v576q0 14-9 23t-23 9h-64q-14 0-23-9t-9-23V736q0-14 9-23t23-9h64q14 0 23 9t9 23zm256 0v576q0 14-9 23t-23 9h-64q-14 0-23-9t-9-23V736q0-14 9-23t23-9h64q14 0 23 9t9 23zm128 724V512H448v948q0 22 7 41t15 27 10 8h832q3 0 11-8t14-27 7-41zM672 384h448l-48-117q-7-9-17-11H738q-10 2-17 11zm928 32v64q0 14-9 23t-23 9h-96v948q0 83-47 144t-113 60H480q-66 0-113-58t-47-142V512h-96q-14 0-23-9t-9-23v-64q0-14 9-23t23-9h309l70-167q15-37 54-63t79-26h320q40 0 79 26t54 63l70 167h309q14 0 23 9t9 23z"/></symbol><symbol id="fa-hourglass" viewBox="0 0 1792 1792"><path d="M1632 1600q14 0 23 9t9 23v128q0 14-9 23t-23 9H160q-14 0-23-9t-9-23v-128q0-14 9-23t23-9zm-1374-64q3-55 16-107t30-95 46-87 54-76 64-69 66-60 71-55 66-48 65-43l-65-43-66-47q-44-32-71-55t-66-60-64-70-54-76-46-87-30-95-16-107h1276q-3 55-16 107t-30 95-46 87-53 76-65 70-66 60-70 55-67 47-65 43l65 43 67 48q45 33 70 55t66 60 65 69 53 76 46 87 30 95 16 107zM1632 0q14 0 23 9t9 23v128q0 14-9 23t-23 9H160q-14 0-23-9t-9-23V32q0-14 9-23t23-9z"/></symbol><symbol id="fa-pencil" viewBox="0 0 1792 1792"><path d="m491 1536 91-91-235-235-91 91v107h128v128zm523-928q0-22-22-22-10 0-17 7l-542 542q-7 7-7 17 0 22 22 22 10 0 17-7l542-542q7-7 7-17zm-54-192 416 416-832 832H128v-416zm683 96q0 53-37 90l-166 166-416-416 166-165q36-38 90-38 53 0 91 38l235 234q37 39 37 91z"/></symbol><symbol id="fa-times" viewBox="0 0 1792 1792"><path d="M1490 1322q0 40-28 68l-136 136q-28 28-68 28t-68-28l-294-294-294 294q-28 28-68 28t-68-28l-136-136q-28-28-28-68t28-68l294-294-294-294q-28-28-28-68t28-68l136-136q28-28 68-28t68 28l294 294 294-294q28-28 68-28t68 28l136 136q28 28 28 68t-28 68l-294 294 294 294q28 28 28 68z"/></symbol><symbol id="fa-volume-off" viewBox="0 0 1792 1792"><path d="M1280 352v1088q0 26-19 45t-45 19-45-19l-333-333H576q-26 0-45-19t-19-45V704q0-26 19-45t45-19h262l333-333q19-19 45-19t45 19 19 45z"/></symbol><symbol id="fa-volume-up" viewBox="0 0 1792 1792"><path d="M832 352v1088q0 26-19 45t-45 19-45-19l-333-333H128q-26 0-45-19t-19-45V704q0-26 19-45t45-19h262l333-333q19-19 45-19t45 19 19 45zm384 544q0 76-42 142t-113 93q-10 5-25 5-26 0-45-18t-19-46q0-21 12-35t29-25 34-23 29-36 12-57-12-56-29-36-34-23-29-25-12-36q0-27 19-45t45-19q15 0 25 5 70 27 113 93t42 142zm256 0q0 153-85 283t-225 188q-13 5-25 5-27 0-46-19t-19-45q0-39 39-59 56-29 76-44 74-54 116-135t41-174-41-173-116-136q-20-15-76-44-39-20-39-59 0-26 19-45t45-19q13 0 26 5 140 59 225 189t85 282zm256 0q0 230-127 423t-338 283q-13 5-26 5-26 0-45-19t-19-45q0-36 39-59l23-10q16-6 22-11 46-25 82-51 123-91 192-227t69-289-69-289-192-227q-36-26-82-51l-22-10q-15-6-23-11-39-23-39-59 0-26 19-45t45-19q13 0 26 5 211 91 338 284t127 422z"/></symbol><symbol id="fa-link" viewBox="0 0 1792 1792"><path d="M1520 1216q0-40-28-68l-208-208q-28-28-68-28-42 0-72 32l19 19 22 21q6 5 15 19t13 26 3 27q0 40-28 68t-68 28q-15 0-27-3t-26-13-19-15-21-22-19-19q-33 31-33 73 0 40 28 68l206 207q27 27 68 27 40 0 68-26l147-146q28-28 28-67zM817 511q0-40-28-68L583 236q-28-28-68-28-39 0-68 27L300 381q-28 28-28 67 0 40 28 68l208 208q27 27 68 27 42 0 72-31l-19-18q-16-15-21-22t-15-19-13-25-4-28q0-40 28-68t68-28q15 0 28 4t25 13 19 15 22 21 18 19q33-31 33-73zm895 705q0 120-85 203l-147 146q-83 83-203 83-121 0-204-85l-206-207q-83-83-83-203 0-123 88-209l-88-88q-86 88-208 88-120 0-204-84L164 652q-84-84-84-204t85-203L312 99q83-83 203-83 121 0 204 85l206 207q83 83 83 203 0 123-88 209l88 88q86-88 208-88 120 0 204 84l208 208q84 84 84 204z"/></symbol><symbol id="fa-circle" viewBox="0 0 1792 1792"><circle cx="50%" cy="50%" r="42.9%"/></symbol><symbol id="fa-circle-o" viewBox="0 0 1792 1792"><path d="M896 352q-148 0-273 73T425 623t-73 273 73 273 198 198 273 73 273-73 198-198 73-273-73-273-198-198-273-73zm768 544q0 209-103 386t-279 279-386 103-385-103-280-279-103-386 103-385 280-280 385-103 386 103 279 280 103 385z"/></symbol><symbol id="fa-angle-left" viewBox="0 0 1792 1792"><path d="M1203 544q0 13-10 23L800 960l393 393q10 10 10 23t-10 23l-50 50q-10 10-23 10t-23-10L631 983q-10-10-10-23t10-23l466-466q10-10 23-10t23 10l50 50q10 10 10 23z"/></symbol><symbol id="fa-angle-right" viewBox="0 0 1792 1792"><path d="M1171 960q0 13-10 23l-466 466q-10 10-23 10t-23-10l-50-50q-10-10-10-23t10-23l393-393-393-393q-10-10-10-23t10-23l50-50q10-10 23-10t23 10l466 466q10 10 10 23z"/></symbol><symbol id="fa-angle-down" viewBox="0 0 1792 1792"><path d="M1395 736q0 13-10 23l-466 466q-10 10-23 10t-23-10L407 759q-10-10-10-23t10-23l50-50q10-10 23-10t23 10l393 393 393-393q10-10 23-10t23 10l50 50q10 10 10 23z"/></symbol><symbol id="fa-search-minus" viewBox="0 0 1792 1792"><path d="M1088 800v64q0 13-9 23t-23 9H480q-13 0-22-9t-10-23v-64q0-13 10-22t22-10h576q13 0 23 10t9 22zm128 32q0-185-131-316T768 384 452 516 320 832t132 317 316 131 317-131 131-317zm512 832q0 53-37 91t-91 37q-54 0-90-38l-343-342q-179 124-399 124-143 0-273-55t-225-150-150-225-56-274 56-273 150-225 225-150 273-56 274 56 225 150 150 225 55 273q0 220-124 399l343 343q37 37 37 90z"/></symbol><symbol id="fa-search-plus" viewBox="0 0 1792 1792"><path d="M1088 800v64q0 13-9 23t-23 9H832v224q0 13-9 23t-23 9h-64q-13 0-22-9t-10-23V896H480q-13 0-22-9t-10-23v-64q0-13 10-22t22-10h224V544q0-13 10-22t22-10h64q13 0 23 10t9 22v224h224q13 0 23 10t9 22zm128 32q0-185-131-316T768 384 452 516 320 832t132 317 316 131 317-131 131-317zm512 832q0 53-37 91t-91 37q-54 0-90-38l-343-342q-179 124-399 124-143 0-273-55t-225-150-150-225-56-274 56-273 150-225 225-150 273-56 274 56 225 150 150 225 55 273q0 220-124 399l343 343q37 37 37 90z"/></symbol><symbol id="fa-share-square-o" viewBox="0 0 1792 1792"><path d="M1472 989v259q0 119-84 204t-204 84H352q-119 0-203-84t-85-204V416q0-119 85-203t203-85h255q13 0 23 10t9 22q0 27-26 32-77 26-133 60-10 4-16 4H352q-66 0-113 47t-47 113v832q0 66 47 113t113 47h832q66 0 113-47t47-113v-214q0-19 18-29 28-13 54-37 16-16 35-8 21 9 21 29zm237-496-384 384q-18 19-45 19-12 0-25-5-39-17-39-59V640h-160q-323 0-438 131-119 137-74 473 3 23-20 34l-12 2q-16 0-26-13l-21-31q-11-17-39-68t-50-100-38-114-18-122q0-49 4-91t14-90 28-88 47-81 68-74 95-62 124-48 160-31 196-11h160V64q0-42 39-59 13-5 25-5 26 0 45 19l384 384q19 19 19 45t-19 45z"/></symbol><symbol id="fa-flag" viewBox="0 0 1792 1792"><path d="M320 256q0 72-64 110v1266q0 13-9 23t-23 9h-64q-13 0-22-9t-10-23V366q-64-38-64-110 0-53 38-90t90-38 91 38 37 90zm1472 64v763q0 25-12 39t-40 27q-215 116-369 116-61 0-123-22t-109-48-115-48-143-22q-192 0-464 146-17 9-33 9-26 0-45-19t-19-45V474q0-32 31-55 21-14 79-43 236-120 421-120 107 0 200 29t219 88q38 19 88 19 54 0 118-21t110-47 88-47 54-21q26 0 45 19t19 45z"/></symbol><symbol id="fa-suitcase" viewBox="0 0 1792 1792"><path d="M640 384h512V256H640v128zm-352 0v1280h-64q-92 0-158-66T0 1440V608q0-92 66-158t158-66h64zm1120 0v1280H384V384h128V224q0-40 28-68t68-28h576q40 0 68 28t28 68v160h128zm384 224v832q0 92-66 158t-158 66h-64V384h64q92 0 158 66t66 158z"/></symbol><symbol id="fa-bar-chart" viewBox="0 0 2048 1792"><path d="M640 896v512H384V896zm384-512v1024H768V384zm1024 1152v128H0V128h128v1408zm-640-896v768h-256V640zm384-384v1152h-256V256z"/></symbol><symbol id="fa-clock" viewBox="0 0 1792 1792"><path d="M1024 544v448q0 14-9 23t-23 9H672q-14 0-23-9t-9-23v-64q0-14 9-23t23-9h224V544q0-14 9-23t23-9h64q14 0 23 9t9 23zm416 352q0-148-73-273t-198-198-273-73-273 73-198 198-73 273 73 273 198 198 273 73 273-73 198-198 73-273zm224 0q0 209-103 386t-279 279-386 103-385-103-280-279-103-386 103-385 280-280 385-103 386 103 279 280 103 385z"/></symbol><symbol id="fa-refresh" viewBox="0 0 1792 1792"><path d="m1639 1056-1 7q-64 268-268 435t-478 166q-146 0-282-55t-244-157l-129 129q-19 19-45 19t-45-19-19-45v-448q0-26 19-45t45-19h448q26 0 45 19t19 45-19 45l-137 137q71 66 161 102t187 36q134 0 250-65t186-179q11-17 53-117 8-23 30-23h192q13 0 23 10t9 22zm25-800v448q0 26-19 45t-45 19h-448q-26 0-45-19t-19-45 19-45l138-138q-148-137-349-137-134 0-250 65T460 628q-11 17-53 117-8 23-30 23H178q-13 0-22-9t-10-23v-7q65-268 270-434t480-167q146 0 284 56t245 156l130-129q19-19 45-19t45 19 19 45z"/></symbol><symbol id="fa-plus" viewBox="0 0 1792 1792"><path d="M1600 736v192q0 40-28 68t-68 28h-416v416q0 40-28 68t-68 28H800q-40 0-68-28t-28-68v-416H288q-40 0-68-28t-28-68V736q0-40 28-68t68-28h416V224q0-40 28-68t68-28h192q40 0 68 28t28 68v416h416q40 0 68 28t28 68z"/></symbol><symbol id="fa-info-circle" viewBox="0 0 1792 1792"><path d="M1152 1376v-160q0-14-9-23t-23-9h-96V672q0-14-9-23t-23-9H672q-14 0-23 9t-9 23v160q0 14 9 23t23 9h96v320h-96q-14 0-23 9t-9 23v160q0 14 9 23t23 9h448q14 0 23-9t9-23zm-128-896V320q0-14-9-23t-23-9H800q-14 0-23 9t-9 23v160q0 14 9 23t23 9h192q14 0 23-9t9-23zm640 416q0 209-103 386t-279 279-386 103-385-103-280-279-103-386 103-385 280-280 385-103 386 103 279 280 103 385z"/></symbol><symbol id="fa-crosshairs" viewBox="0 0 1792 1792"><path d="M1325 1024h-109q-26 0-45-19t-19-45V832q0-26 19-45t45-19h109q-32-108-112-188t-189-113v109q0 26-19 45t-45 19H832q-26 0-45-19t-19-45V467q-108 32-188 113T467 768h109q26 0 45 19t19 45v128q0 26-19 45t-45 19H467q32 108 113 189t188 112v-109q0-26 19-45t45-19h128q26 0 45 19t19 45v109q108-32 189-112t112-189zm339-192v128q0 26-19 45t-45 19h-143q-37 161-154 279t-279 154v143q0 26-19 45t-45 19H832q-26 0-45-19t-19-45v-143q-161-37-278-154t-155-279H192q-26 0-45-19t-19-45V832q0-26 19-45t45-19h143q37-161 155-278t278-155V192q0-26 19-45t45-19h128q26 0 45 19t19 45v143q161 37 279 155t154 278h143q26 0 45 19t19 45z"/></symbol><symbol id="fa-magic" viewBox="0 0 1792 1792"><path d="m1254 581 293-293-107-107-293 293zm447-293q0 27-18 45L397 1619q-18 18-45 18t-45-18l-198-198q-18-18-18-45t18-45L1395 45q18-18 45-18t45 18l198 198q18 18 18 45zM350 98l98 30-98 30-30 98-30-98-98-30 98-30 30-98zm350 162 196 60-196 60-60 196-60-196-196-60 196-60 60-196zm930 478 98 30-98 30-30 98-30-98-98-30 98-30 30-98zM990 98l98 30-98 30-30 98-30-98-98-30 98-30 30-98z"/></symbol><symbol id="fa-hashtag" viewBox="0 0 1792 1792"><path d="m991 1024 64-256H801l-64 256h254zm768-504-56 224q-7 24-31 24h-327l-64 256h311q15 0 25 12 10 14 6 28l-56 224q-5 24-31 24h-327l-81 328q-7 24-31 24H873q-16 0-26-12-9-12-6-28l78-312H665l-81 328q-7 24-31 24H328q-15 0-25-12-9-12-6-28l78-312H64q-15 0-25-12-9-12-6-28l56-224q7-24 31-24h327l64-256H200q-15 0-25-12-10-14-6-28l56-224q5-24 31-24h327l81-328q7-24 32-24h224q15 0 25 12 9 12 6 28l-78 312h254l81-328q7-24 32-24h224q15 0 25 12 9 12 6 28l-78 312h311q15 0 25 12 9 12 6 28z"/></symbol><symbol id="fa-bookmark" viewBox="0 0 1792 1792"><path d="M1420 128q23 0 44 9 33 13 52.5 41t19.5 62v1289q0 34-19.5 62t-52.5 41q-19 8-44 8-48 0-83-32l-441-424-441 424q-36 33-83 33-23 0-44-9-33-13-52.5-41t-19.5-62V240q0-34 19.5-62t52.5-41q21-9 44-9h1048z"/></symbol></svg>